<svg xmlns="http://www.w3.org/2000/svg" width="1000" height="210" viewBox="0 0 1000 210" role="img" aria-label="Custom GitHub milestones, not official GitHub achievements"><title>Custom GitHub milestones, not official GitHub achievements</title><rect x=".5" y=".5" width="999" height="209" rx="4" fill="#0f1620" stroke="#303c4b"/><g font-family="Segoe UI,Arial,sans-serif"><text x="24" y="34" fill="#d7b877" font-size="14" letter-spacing="2">MILESTONES</text><path d="M111 65H139V81Q139 99 125 99Q111 99 111 81Z M111 70H102V78Q102 90 114 90 M139 70H148V78Q148 90 136 90 M125 99V112 M114 112H136" fill="none" stroke="#d7b877" stroke-width="2"/><text x="125" y="141" fill="#d7b877" font-size="12" text-anchor="middle">FIRST REPO</text><text x="125" y="164" fill="#98a5b6" font-size="11" text-anchor="middle">Created a public repo</text><text x="125" y="187" fill="#d7b877" font-size="10" text-anchor="middle">UNLOCKED</text><path d="M361 65H389V81Q389 99 375 99Q361 99 361 81Z M361 70H352V78Q352 90 364 90 M389 70H398V78Q398 90 386 90 M375 99V112 M364 112H386" fill="none" stroke="#d7b877" stroke-width="2"/><text x="375" y="141" fill="#d7b877" font-size="12" text-anchor="middle">100 CONTRIBUTIONS</text><text x="375" y="164" fill="#98a5b6" font-size="11" text-anchor="middle">In this calendar</text><text x="375" y="187" fill="#d7b877" font-size="10" text-anchor="middle">UNLOCKED</text><path d="M611 65H639V81Q639 99 625 99Q611 99 611 81Z M611 70H602V78Q602 90 614 90 M639 70H648V78Q648 90 636 90 M625 99V112 M614 112H636" fill="none" stroke="#d7b877" stroke-width="2"/><text x="625" y="141" fill="#d7b877" font-size="12" text-anchor="middle">3 LANGUAGES</text><text x="625" y="164" fill="#98a5b6" font-size="11" text-anchor="middle">In public repositories</text><text x="625" y="187" fill="#d7b877" font-size="10" text-anchor="middle">UNLOCKED</text><path d="M861 65H889V81Q889 99 875 99Q861 99 861 81Z M861 70H852V78Q852 90 864 90 M889 70H898V78Q898 90 886 90 M875 99V112 M864 112H886" fill="none" stroke="#d7b877" stroke-width="2"/><text x="875" y="141" fill="#d7b877" font-size="12" text-anchor="middle">10 REPOSITORIES</text><text x="875" y="164" fill="#98a5b6" font-size="11" text-anchor="middle">Public repositories</text><text x="875" y="187" fill="#d7b877" font-size="10" text-anchor="middle">UNLOCKED</text></g></svg>